<svg height="48" viewBox="0 0 247 48" width="247" xmlns="http://www.w3.org/2000/svg"><g fill="none" fill-rule="evenodd"><path d="m0 0h247v48h-247z" fill="#fff" fill-opacity=".01"/><path d="m20.938 38.666h-20.938v-.38c2.50801254.1520008 3.6986673-1.0766536 3.572-3.686v-21.508c0-1.4250071-.21152132-2.4046862-.63456992-2.9390622l-.08743008-.1009378c-.43066882-.53200266-1.32999316-.78533346-2.698-.76v-.38h12.312v.38c-2.3306783-.22800114-3.40733422 1.0259863-3.23 3.762v25.232h4.826c3.2426829.6333365 5.7506578-2.7739628 7.524-10.222l.38.152zm2.584-19.684 8.018-1.634v17.67c-.2026677 2.3813452.8359886 3.4706677 3.116 3.268v.38h-11.4v-.38c2.2293445.1520008 3.2680008-.9246551 3.116-3.23v-12.198c.1013338-2.4826791-.8486567-3.6480008-2.85-3.496zm5.51-10.982c1.874676.1266673 2.8626662 1.21598974 2.964 3.268-.0760004 2.0773437-1.0639905 3.1666662-2.964 3.268-1.9000095-.0760004-2.8879996-1.1653228-2.964-3.268.0760004-2.10267718 1.0639905-3.19199962 2.964-3.268zm14.516 10.64h4.446v.38h-4.446v15.96c-.0243591 1.778214.6773597 2.6897937 2.1051767 2.7347634l.1748233.0012366c.8613376.0253335 1.8366612-.3546627 2.926-1.14l.266.38c-1.7226753 1.5706745-3.5973232 2.3433335-5.624 2.318-3.3440167-.0253335-5.0286665-1.7353164-5.054-5.13v-15.124h-2.052v-.38c3.1666825.2786681 4.9399981-2.2293069 5.32-7.524h1.938zm13.756 0h4.446v.38h-4.446v15.96c-.0243591 1.778214.6773597 2.6897937 2.1051767 2.7347634l.1748233.0012366c.8613376.0253335 1.8366612-.3546627 2.926-1.14l.266.38c-1.7226753 1.5706745-3.5973232 2.3433335-5.624 2.318-3.3440167-.0253335-5.0286665-1.7353164-5.054-5.13v-15.124h-2.052v-.38c3.1666825.2786681 4.9399981-2.2293069 5.32-7.524h1.938zm6.498 20.026v-.38c2.2293445.1773342 3.2680008-.8993217 3.116-3.23v-20.634c.1520008-2.6600133-.8486559-3.8760011-3.002-3.648v-.38l8.322-2.09v26.714c-.1520008 2.3306783.8359894 3.4200008 2.964 3.268v.38zm31.958-10.602h-12.768c.0506669 7.0427019 1.975981 10.6273327 5.776 10.754 3.0653487-.3040015 5.3073262-2.0393175 6.726-5.206l.38.228c-1.7480087 3.6226848-4.5599806 5.4719996-8.436 5.548-6.5106992-.1520008-9.8293327-3.7366316-9.956-10.754.1266673-7.5240376 3.2806358-11.3746658 9.462-11.552 5.8266958.0506669 8.7653331 3.711297 8.816 10.982zm-12.768-.38h7.41c0-6.7084951-1.1453007-10.115014-3.4359357-10.2196532l-.1360643-.0023468c-2.5840129-.1013338-3.8633335 3.3059654-3.838 10.222zm46.55 10.982h-11.742v-.38c2.381345.1266673 3.521334-1.1019871 3.42-3.686v-21.28c.076-2.8120141-1.013322-4.1546673-3.268-4.028v-.38h11.438c10.158717.1266673 15.301333 5.0412848 15.428 14.744.101334 10.133384-4.990615 15.1366673-15.276 15.01zm-.456-29.374h-2.204v28.994h2.66c6.163971.074866 9.27962-4.5946938 9.347035-14.0088177l.000965-.4311823c0-9.6773817-3.267967-14.52866654-9.804-14.554zm37.962 18.772h-12.768c.050667 7.0427019 1.975981 10.6273327 5.776 10.754 3.065349-.3040015 5.307326-2.0393175 6.726-5.206l.38.228c-1.748009 3.6226848-4.559981 5.4719996-8.436 5.548-6.510699-.1520008-9.829333-3.7366316-9.956-10.754.126667-7.5240376 3.280636-11.3746658 9.462-11.552 5.826696.0506669 8.765333 3.711297 8.816 10.982zm-12.768-.38h7.41c0-6.7084951-1.145301-10.115014-3.435936-10.2196532l-.136064-.0023468c-2.584013-.1013338-3.863333 3.3059654-3.838 10.222zm22.344-9.044h4.446v.38h-4.446v15.96c-.024359 1.778214.67736 2.6897937 2.105177 2.7347634l.174823.0012366c.861338.0253335 1.836661-.3546627 2.926-1.14l.266.38c-1.722675 1.5706745-3.597323 2.3433335-5.624 2.318-3.344017-.0253335-5.028667-1.7353164-5.054-5.13v-15.124h-2.052v-.38c3.166683.2786681 4.939998-2.2293069 5.32-7.524h1.938zm26.828 19.342v.38l-4.864.608c-1.849343.2533346-2.761333-.5699905-2.736-2.47-1.520008 1.7226753-3.546654 2.5966665-6.08 2.622-3.648018-.1520008-5.573332-1.8999833-5.776-5.244-.228001-4.4333555 3.68596-6.8779977 11.742-7.334v-4.522c-.101334-2.7613471-1.393321-4.2053327-3.876-4.332-1.596008.0506669-3.09066.5193289-4.484 1.406 2.204011-.0760004 3.369333.9246563 3.496 3.002-.076 1.7226753-1.089324 2.6219996-3.04 2.698-1.697342-.0760004-2.584-.9373251-2.66-2.584.329335-3.1666825 3.052641-4.8386658 8.17-5.016 4.889358.1266673 7.409999 2.3053122 7.562 6.536v12.122c-.101334 1.4946741.747324 2.2040004 2.546 2.128zm-7.714-4.18v-6.878c-4.281355.65867-6.409333 2.9893133-6.384 6.992.101334 2.6346798 1.063991 4.0406658 2.888 4.218 2.229344-.2026677 3.394666-1.6466532 3.496-4.332zm9.804-14.82 8.018-1.634v17.67c-.202668 2.3813452.835989 3.4706677 3.116 3.268v.38h-11.4v-.38c2.229344.1520008 3.268001-.9246551 3.116-3.23v-12.198c.101334-2.4826791-.848657-3.6480008-2.85-3.496zm5.51-10.982c1.874676.1266673 2.862666 1.21598974 2.964 3.268-.076 2.0773437-1.06399 3.1666662-2.964 3.268-1.900009-.0760004-2.888-1.1653228-2.964-3.268.076-2.10267718 1.063991-3.19199962 2.964-3.268zm7.258 30.666v-.38c2.229344.1773342 3.268001-.8993217 3.116-3.23v-20.634c.152001-2.6600133-.848656-3.8760011-3.002-3.648v-.38l8.322-2.09v26.714c-.152001 2.3306783.835989 3.4200008 2.964 3.268v.38zm27.322-14.326-.38.114c-1.482934-4.6959584-3.291364-6.9926653-5.425341-6.8901845l-.160659.0121845c-2.153344.1013338-3.280666 1.2413224-3.382 3.42 0 1.8834117 1.39335 3.4479789 4.180089 4.693745l.303911.132255c3.901353 1.6213414 5.826667 3.9266517 5.776 6.916-.126667 4.2053544-2.507977 6.3839992-7.144 6.536-1.697342.0253335-3.318659-.2533304-4.864-.836l-1.786.38-.608-7.372.38-.114c1.722675 5.396027 3.90132 7.9166684 6.536 7.562 2.330678-.1013338 3.534-1.3046551 3.61-3.61.024566-1.9161308-1.689802-3.5940237-5.143154-5.0337258l-.328846-.1342742c-3.496017-1.3933403-5.231333-3.5719852-5.206-6.536.076-4.1546874 2.49531-6.2826662 7.258-6.384 1.646675 0 2.976662.2406643 3.99.722l1.824-.57z" fill="#202327" fill-rule="nonzero"/></g></svg>